<?xml version="1.0" encoding="UTF-8"?>
<svg version="1.1" xmlns="http://www.w3.org/2000/svg" width="1800" height="1200">
<path d="M0 0 C1.87785648 -0.00407612 3.75571055 -0.00942377 5.63356018 -0.01593018 C10.6852398 -0.029486 15.73673347 -0.02435413 20.78841591 -0.01479292 C26.10467614 -0.00713494 31.42092169 -0.01425882 36.73718262 -0.01895142 C45.66059187 -0.02439124 54.58392635 -0.01726412 63.50732422 -0.00292969 C73.78660243 0.01339336 84.06570206 0.00810359 94.34497595 -0.0084089 C103.21088346 -0.02207453 112.07673757 -0.02391873 120.94265223 -0.0160929 C126.22021564 -0.01144417 131.49769544 -0.01071364 136.7752533 -0.02070236 C141.7396514 -0.02944406 146.7038219 -0.02322023 151.66819572 -0.00601959 C153.47722434 -0.00209287 155.28627252 -0.00312225 157.09529305 -0.00980759 C172.84138985 -0.06258038 187.34737919 1.34243657 201.72070312 8.38818359 C203.07035156 9.03400391 203.07035156 9.03400391 204.44726562 9.69287109 C226.66840553 21.02757358 245.62909028 40.77996303 254.08740234 64.38720703 C256.15313679 70.91409969 257.42667213 77.67444634 258.72070312 84.38818359 C259.40769287 84.04150635 260.09468262 83.6948291 260.80249023 83.33764648 C291.80577184 67.79360584 323.20370576 56.89625148 357.72070312 52.38818359 C358.92025635 52.2313208 358.92025635 52.2313208 360.14404297 52.07128906 C367.69199314 51.20043165 375.25510958 51.14784041 382.84570312 51.13818359 C383.5420285 51.13651184 384.23835388 51.13484009 384.95578003 51.13311768 C397.95058336 51.13126088 410.94884301 51.81102033 423.72070312 54.38818359 C425.51531982 54.66746704 425.51531982 54.66746704 427.34619141 54.95239258 C430.72070312 56.38818359 430.72070312 56.38818359 432.40161133 59.80883789 C432.80568532 61.26851873 433.17709163 62.73749978 433.52148438 64.21240234 C433.72879684 64.99202835 433.93610931 65.77165436 434.14970398 66.5749054 C434.80605569 69.06876789 435.42006322 71.57088551 436.03320312 74.07568359 C436.46336505 75.74241938 436.89627919 77.40844743 437.33203125 79.07373047 C438.31457591 82.84419596 439.2672276 86.62104878 440.2010498 90.40385437 C440.69548357 92.2918811 441.27884065 94.15595606 441.86645508 96.01708984 C444.56767304 106.67682625 440.95082126 118.96329909 438.84570312 129.57568359 C438.69852844 130.32910034 438.55135376 131.08251709 438.39971924 131.85876465 C435.73863731 145.39528214 432.52015616 158.77635606 429.09570312 172.13818359 C428.86627014 173.03580414 428.63683716 173.93342468 428.40045166 174.85824585 C425.5009781 186.14593553 422.31808493 197.30288942 418.72070312 208.38818359 C416.09963694 206.07153257 414.88635656 203.89707612 413.54882812 200.68115234 C412.93406616 199.23361572 412.93406616 199.23361572 412.30688477 197.75683594 C411.86594482 196.70705566 411.42500488 195.65727539 410.97070312 194.57568359 C406.5581846 184.29933033 401.80366783 174.2531571 396.78320312 164.26318359 C396.46073608 163.61956879 396.13826904 162.97595398 395.80603027 162.31283569 C394.30483736 159.32064221 392.78987388 156.33750639 391.25268555 153.36352539 C390.35284985 151.61590823 389.47168659 149.85803563 388.63598633 148.07885742 C387.0132716 144.79780636 385.79008708 143.42747538 382.56835938 141.60302734 C381.31925781 141.18150391 380.07015625 140.75998047 378.78320312 140.32568359 C378.08501465 140.0880127 377.38682617 139.8503418 376.66748047 139.60546875 C374.36066201 138.83585638 372.04262029 138.1108429 369.72070312 137.38818359 C368.93453613 137.13149902 368.14836914 136.87481445 367.33837891 136.61035156 C336.2649943 126.51103256 300.85449699 123.08342894 268.72070312 130.38818359 C267.95419434 130.55979004 267.18768555 130.73139648 266.39794922 130.90820312 C246.46462004 135.53683881 225.92472825 144.71987491 211.56445312 159.62646484 C209.72070312 161.38818359 209.72070312 161.38818359 207.72070312 161.38818359 C207.48351563 161.95021484 207.24632812 162.51224609 207.00195312 163.09130859 C205.43295604 165.90402288 203.47721357 167.83882801 201.22070312 170.13818359 C179.89057766 192.87211988 169.71416622 225.3458131 170.47070312 256.11865234 C171.41788998 276.8951961 179.5297189 296.01956844 194.72070312 310.38818359 C225.31735515 336.16908035 268.4173232 347.38718852 306.72070312 355.38818359 C307.71924316 355.60039551 308.7177832 355.81260742 309.74658203 356.03125 C370.28228862 368.69921796 432.15341458 370.1562917 493.72070312 372.38818359 C492.78279437 373.81148292 491.84265847 375.23331476 490.90161133 376.65454102 C490.37831741 377.44648361 489.8550235 378.23842621 489.31587219 379.05436707 C487.01844834 382.4156194 484.48956237 385.55565285 481.90820312 388.70068359 C478.20507835 393.27148614 474.55701611 397.86490203 471.03320312 402.57568359 C470.31261719 403.52701172 469.59203125 404.47833984 468.84960938 405.45849609 C467.37370842 407.48955246 465.96853235 409.57316772 464.62304688 411.69287109 C463.91277344 412.76794922 463.2025 413.84302734 462.47070312 414.95068359 C461.86742187 415.92134766 461.26414062 416.89201172 460.64257812 417.89208984 C455.96342969 421.88938376 450.68051988 422.36419525 444.72070312 423.38818359 C444.0530896 423.50604218 443.38547607 423.62390076 442.69763184 423.74533081 C437.3829282 424.67860716 432.05528509 425.51476275 426.72070312 426.32568359 C425.87977112 426.45446899 425.03883911 426.58325439 424.17242432 426.71594238 C411.67510246 428.61901635 399.16286756 430.27129383 386.59570312 431.63818359 C385.90250977 431.71495331 385.20931641 431.79172302 384.49511719 431.87081909 C379.24265092 432.44573809 373.98526179 432.93793633 368.72070312 433.38818359 C367.69996704 433.47571899 366.67923096 433.56325439 365.62756348 433.65344238 C347.66946389 435.14684352 329.78114286 435.71032136 311.77001953 435.64892578 C308.3743387 435.63743968 304.97896844 435.64437622 301.58329773 435.65581512 C264.40722382 435.76170489 264.40722382 435.76170489 251.72070312 432.38818359 C251.97464844 432.92443359 252.22859375 433.46068359 252.49023438 434.01318359 C260.3980623 452.0205221 260.73676284 472.04602292 254.65429688 490.64990234 C253.46878611 493.64302357 252.15711021 496.50747708 250.72070312 499.38818359 C250.016875 500.83064453 250.016875 500.83064453 249.29882812 502.30224609 C239.70859612 520.29580021 223.44382427 533.61352111 204.25879288 540.23830605 C194.54959982 543.02339271 184.98509769 542.81116201 174.97753906 542.77636719 C173.00175182 542.78043899 171.02596686 542.78578427 169.05018616 542.79229736 C163.71315841 542.80590794 158.37630576 542.80069729 153.03927517 542.79116011 C147.43204234 542.78352669 141.82482379 542.79061969 136.21759033 542.7953186 C126.7994927 542.80076727 117.38146578 542.79360977 107.96337891 542.77929688 C97.10933365 542.7629911 86.25545766 542.76824745 75.40141654 542.78477609 C66.05151804 542.79843903 56.70167019 542.80028664 47.35176492 542.79246008 C41.78127286 542.78780747 36.21086005 542.78709141 30.64037323 542.79706955 C25.39696876 542.8058065 20.15377993 542.79959577 14.91039848 542.78238678 C12.99816939 542.77845676 11.0859218 542.77949529 9.17370033 542.78617477 C-6.87523425 542.83701749 -21.62103749 541.58442809 -36.27929688 534.38818359 C-37.68115234 533.70755859 -37.68115234 533.70755859 -39.11132812 533.01318359 C-61.44394606 521.51891311 -78.00121524 501.04736961 -86.63867188 477.71630859 C-90.78628818 464.67235586 -93.71606226 446.26171437 -87.27929688 433.38818359 C-87.82827637 433.46858887 -88.37725586 433.54899414 -88.94287109 433.63183594 C-168.03868491 444.95431204 -249.87239623 437.16145448 -328.64257812 426.97412109 C-329.65827881 426.84401138 -330.67397949 426.71390167 -331.72045898 426.57984924 C-351.97657476 423.91570858 -351.97657476 423.91570858 -356.02929688 419.26318359 C-357.11597656 418.05662109 -357.11597656 418.05662109 -358.22460938 416.82568359 C-358.90265625 416.02130859 -359.58070313 415.21693359 -360.27929688 414.38818359 C-361.48754377 413.01310763 -362.69587171 411.63810289 -363.90429688 410.26318359 C-364.46375 409.61091797 -365.02320313 408.95865234 -365.59960938 408.28662109 C-367.80216908 405.79721641 -370.16282324 403.49367329 -372.53320312 401.16552734 C-374.96594655 398.68924489 -377.19733395 396.05517072 -379.45898438 393.42333984 C-381.90473588 390.68892668 -384.52679395 388.16011025 -387.18945312 385.63818359 C-389.0973872 383.58403401 -390.73919174 381.49470806 -392.40991211 379.24755859 C-392.94792953 378.52536133 -393.48594696 377.80316406 -394.04026794 377.05908203 C-394.65358727 376.2319873 -394.65358727 376.2319873 -395.27929688 375.38818359 C-394.48910156 375.36978928 -393.69890625 375.35139496 -392.88476562 375.33244324 C-302.47103483 373.20973873 -210.91092035 370.9632457 -19.65429688 302.82568359 C-11.89843148 293.88718624 -6.50872138 283.014356 -4.27929688 271.38818359 C-4.09753906 270.45619141 -3.91578125 269.52419922 -3.72851562 268.56396484 C0.0548696 241.81707628 -8.68054155 215.16615237 -24.27929688 193.62646484 C-26.21133981 191.14519196 -28.21378693 188.75926523 -30.27929688 186.38818359 C-31.43558594 185.03273438 -31.43558594 185.03273438 -32.61523438 183.64990234 C-61.5167651 150.69121667 -103.9159016 136.88623367 -146.49658203 133.61523438 C-182.8231083 131.43479876 -218.16298762 135.95213729 -253.27929688 145.45068359 C-254.55148071 145.78193237 -254.55148071 145.78193237 -255.84936523 146.11987305 C-264.13492986 148.49437899 -267.8410442 153.8058211 -272.27929688 160.82568359 C-272.74859619 161.56012695 -273.21789551 162.29457031 -273.70141602 163.05126953 C-284.11659345 179.48999093 -293.68160506 196.46462884 -303.27929688 213.38818359 C-306.4471819 211.80424108 -306.61153625 209.14823638 -307.74804688 205.86474609 C-307.98454453 205.18440811 -308.22104218 204.50407013 -308.46470642 203.80311584 C-309.24574001 201.54294178 -310.01360936 199.27859958 -310.77929688 197.01318359 C-311.17630295 195.84754379 -311.17630295 195.84754379 -311.58132935 194.65835571 C-319.8436122 170.3437974 -327.25845367 145.59294217 -332.27929688 120.38818359 C-332.48425781 119.39431641 -332.68921875 118.40044922 -332.90039062 117.37646484 C-333.92234398 109.31672965 -332.89994254 102.96421587 -330.21679688 95.32177734 C-329.90605225 94.40227798 -329.59530762 93.48277863 -329.27514648 92.53541565 C-328.28923226 89.62765868 -327.28464141 86.72677248 -326.27929688 83.82568359 C-325.60356843 81.8436872 -324.9290767 79.86126871 -324.25585938 77.87841797 C-322.61126411 73.04334197 -320.94989902 68.2143323 -319.27929688 63.38818359 C-317.69975711 63.06585625 -316.11985063 62.74532571 -314.53979492 62.42553711 C-313.66002487 62.24684586 -312.78025482 62.0681546 -311.87382507 61.88404846 C-308.29472715 61.20001314 -304.71183798 60.72873254 -301.09179688 60.32568359 C-300.35533936 60.24334473 -299.61888184 60.16100586 -298.86010742 60.07617188 C-296.66733647 59.83780155 -294.47373715 59.61060696 -292.27929688 59.38818359 C-291.16554688 59.27345703 -290.05179688 59.15873047 -288.90429688 59.04052734 C-219.74238529 53.24984843 -148.48048346 70.33808851 -87.27929688 102.38818359 C-87.49585938 101.49099609 -87.71242188 100.59380859 -87.93554688 99.66943359 C-92.72679598 78.19753947 -90.67901943 56.26031829 -78.65429688 37.32568359 C-64.95123748 17.87452437 -47.54863295 5.15937755 -23.86540222 1.02888107 C-15.95346526 -0.19195743 -7.98499634 -0.029509 0 0 Z M-19.27929688 75.38818359 C-20.05730568 81.612254 -18.96816581 84.77422094 -15.30273438 89.79052734 C-14.635 90.64775391 -13.96726562 91.50498047 -13.27929688 92.38818359 C-12.88774414 92.89623535 -12.49619141 93.40428711 -12.09277344 93.92773438 C-9.33908585 97.49697772 -6.54401976 101.03194388 -3.73486328 104.55761719 C-1.40279153 107.49050448 0.9081724 110.43988283 3.22070312 113.38818359 C4.13726188 114.55493504 5.05392872 115.72160158 5.97070312 116.88818359 C55.47070312 179.88818359 55.47070312 179.88818359 56.84545898 181.63793945 C57.76285321 182.80548769 58.68033379 183.97296808 59.59790039 185.14038086 C61.87914557 188.0430115 64.15891526 190.94677633 66.43554688 193.85302734 C70.63070655 199.20513457 74.83898892 204.54460685 79.1015625 209.84326172 C83.87306778 215.7748977 88.55608445 221.76154492 93.15820312 227.82568359 C97.99394841 234.19582716 102.96301273 240.43733741 108.03442383 246.62109375 C112.37818393 251.92873149 116.56372132 257.34148176 120.69726562 262.81396484 C122.28572953 264.83480985 123.84668526 266.63949814 125.72070312 268.38818359 C125.93984375 267.46521484 126.15898438 266.54224609 126.38476562 265.59130859 C132.08896717 241.95213643 139.30624463 218.77755726 150.74707031 197.23828125 C151.69375307 195.43939411 152.60529466 193.6265622 153.50976562 191.80615234 C163.54630691 171.90620687 176.91881698 153.34764613 192.17773438 137.14208984 C193.97110677 135.19995845 195.67919188 133.26359432 197.35742188 131.22802734 C199.08038372 129.15762526 200.77081994 127.23544135 202.72070312 125.38818359 C202.06714844 124.58380859 202.06714844 124.58380859 201.40039062 123.76318359 C194.86829892 115.1668378 191.52683884 105.60878619 188.51757812 95.34130859 C185.66899086 85.76639512 182.18840919 78.81890112 173.53320312 73.38818359 C168.42600854 71.57229219 163.81596616 71.2601272 158.40223694 71.2477417 C157.31187036 71.24328502 157.31187036 71.24328502 156.19947618 71.2387383 C153.76912146 71.23008199 151.33881617 71.22854568 148.90844727 71.22705078 C147.16377152 71.22242056 145.41909678 71.21739562 143.67442322 71.21200562 C138.93893065 71.1989022 134.20345224 71.19244107 129.46794438 71.18799496 C126.5091446 71.18506185 123.55034867 71.18095666 120.59155083 71.17649078 C111.33310593 71.16282336 102.07466986 71.15315213 92.81621557 71.14928889 C82.12988426 71.14480517 71.44368065 71.12723951 60.75738817 71.0982883 C52.49483893 71.07668029 44.23232564 71.06658514 35.96974844 71.06524777 C31.03549279 71.06419943 26.10135732 71.05828482 21.16713142 71.04042816 C16.52713671 71.02396199 11.88735275 71.02178489 7.24733925 71.03056717 C5.54537644 71.03133823 3.84340237 71.02698569 2.14146805 71.01710892 C-0.18388815 71.00440639 -2.50849594 71.01025646 -4.83384705 71.02069092 C-6.78475958 71.01849108 -6.78475958 71.01849108 -8.7750845 71.0162468 C-12.75177924 71.43833283 -16.36943085 72.47831757 -19.27929688 75.38818359 Z M53.72070312 291.38818359 C53.73641357 292.20794678 53.75212402 293.02770996 53.76831055 293.87231445 C54.28910235 325.20112755 50.7961937 352.69458305 29.72070312 377.38818359 C28.75777344 378.56767578 28.75777344 378.56767578 27.77539062 379.77099609 C12.16948045 398.14105272 -10.85794258 411.19576568 -33.27929688 419.38818359 C-32.4796113 422.53259632 -32.4796113 422.53259632 -29.96679688 424.70068359 C-23.95238328 430.71509719 -21.3751708 436.66864669 -20.69897461 445.09765625 C-19.95764504 454.01281104 -18.13498374 461.0979464 -11.16601562 467.25537109 C-4.23205372 472.26123651 2.8325805 473.63526977 11.27931213 473.64888 C11.99583023 473.65270555 12.71234834 473.6565311 13.45057911 473.66047257 C15.82788798 473.67071023 18.20495114 473.66682825 20.58227539 473.6628418 C22.29621604 473.66719329 24.01015474 473.67237789 25.72409058 473.67832947 C30.36239073 473.69168089 35.00060922 473.69230265 39.63892484 473.68976617 C43.51578515 473.68869425 47.39262909 473.69358526 51.26948589 473.69837159 C60.41559102 473.70945254 69.56165508 473.70991155 78.70776367 473.70385742 C88.13613144 473.69781243 97.56435018 473.71014523 106.99269253 473.73142749 C115.09736441 473.74904764 123.20198886 473.75504436 131.30667919 473.75178975 C136.1431035 473.74997806 140.97942139 473.75260204 145.81582832 473.76650429 C150.36231217 473.77908541 154.90856349 473.77713585 159.45504379 473.7640934 C161.1211079 473.76172903 162.7871884 473.76445732 164.45323372 473.77271652 C166.73211705 473.78319737 169.01022197 473.77507341 171.28907776 473.7624054 C172.56274484 473.76257314 173.83641191 473.76274088 175.14867496 473.7629137 C179.36300218 473.32080204 181.97929922 472.35422872 185.72070312 470.38818359 C187.56207044 467.69761763 187.56207044 467.69761763 187.72070312 464.38818359 C185.71684978 458.59535402 182.61958034 454.23379511 178.84570312 449.45068359 C178.27489014 448.7155957 177.70407715 447.98050781 177.1159668 447.22314453 C172.62123408 441.46170882 168.02046406 435.78696022 163.39160156 430.13305664 C159.21716317 425.02878802 155.1781497 419.83646982 151.17773438 414.59521484 C148.57667733 411.18964236 145.93378319 407.81778795 143.28320312 404.45068359 C142.8254248 403.86915527 142.36764648 403.28762695 141.89599609 402.68847656 C140.96810692 401.51028219 140.04004659 400.3322226 139.11181641 399.15429688 C136.81196075 396.23447311 134.51654368 393.31116466 132.22070312 390.38818359 C131.30405803 389.22149998 130.38739135 388.05483332 129.47070312 386.88818359 C112.97070312 365.88818359 96.47070312 344.88818359 79.97070312 323.88818359 C79.51655029 323.3102002 79.06239746 322.7322168 78.59448242 322.13671875 C77.68176965 320.97502533 76.76917119 319.81324209 75.85668945 318.65136719 C73.50547802 315.65784697 71.15204274 312.66611605 68.79492188 309.67724609 C67.83256741 308.45598244 66.87032589 307.23462979 65.90820312 306.01318359 C65.44881348 305.43036621 64.98942383 304.84754883 64.51611328 304.24707031 C61.99308438 301.03736517 59.51923015 297.79853765 57.09570312 294.51318359 C55.92007813 292.96630859 55.92007813 292.96630859 54.72070312 291.38818359 C54.39070313 291.38818359 54.06070313 291.38818359 53.72070312 291.38818359 Z " fill="#000000" transform="translate(817.279296875,224.61181640625)"/>
<path d="M0 0 C5.94 0 11.88 0 18 0 C17.67 2.31 17.34 4.62 17 7 C17.53287713 9.72133753 17.53287713 9.72133753 18.6171875 12.2421875 C18.97683594 13.16257812 19.33648438 14.08296875 19.70703125 15.03125 C20.09246094 15.9696875 20.47789062 16.908125 20.875 17.875 C21.25269531 18.83664062 21.63039063 19.79828125 22.01953125 20.7890625 C23.49520476 25.2055663 23.49520476 25.2055663 26 29 C27.54481929 25.30121262 29.05646767 21.58973057 30.5625 17.875 C31.00013672 16.82828125 31.43777344 15.7815625 31.88867188 14.703125 C32.29794922 13.68476562 32.70722656 12.66640625 33.12890625 11.6171875 C33.70233765 10.21895752 33.70233765 10.21895752 34.28735352 8.79248047 C35.3296533 5.49148438 35.3296533 5.49148438 34 0 C40.27 0 46.54 0 53 0 C53 0.99 53 1.98 53 3 C52.34 3 51.68 3 51 3 C51.27263672 3.7113208 51.54527344 4.4226416 51.82617188 5.15551758 C53.05592153 8.37257421 54.27804222 11.59247612 55.5 14.8125 C55.92925781 15.93205078 56.35851562 17.05160156 56.80078125 18.20507812 C57.20683594 19.27822266 57.61289062 20.35136719 58.03125 21.45703125 C58.59682617 22.9416687 58.59682617 22.9416687 59.17382812 24.45629883 C60 27 60 27 60 30 C60.66 30 61.32 30 62 30 C62.12689209 29.28432861 62.25378418 28.56865723 62.38452148 27.83129883 C63.00016372 24.99924687 63.84629957 22.41718689 64.84765625 19.69921875 C65.38422852 18.23452148 65.38422852 18.23452148 65.93164062 16.74023438 C66.30482422 15.73283203 66.67800781 14.72542969 67.0625 13.6875 C67.43955078 12.66076172 67.81660156 11.63402344 68.20507812 10.57617188 C69.13346068 8.04956113 70.06520129 5.52424239 71 3 C70.01 2.67 69.02 2.34 68 2 C68 1.34 68 0.68 68 0 C74.27 0 80.54 0 87 0 C86.67 0.99 86.34 1.98 86 3 C85.34 3 84.68 3 84 3 C83.64292969 4.12535156 83.28585937 5.25070312 82.91796875 6.41015625 C80.0588723 14.99080727 76.65957401 23.38700269 73.3894043 31.81713867 C72.50284713 34.10486786 71.62033659 36.39412584 70.73828125 38.68359375 C70.3258593 39.7413224 70.3258593 39.7413224 69.90510559 40.82041931 C68.48390854 44.30872979 68.48390854 44.30872979 68 48 C68.66 48.33 69.32 48.66 70 49 C70 49.99 70 50.98 70 52 C64.06 52 58.12 52 52 52 C52 49 52 49 54 47 C52.35579332 42.70770835 50.70936065 38.416274 49.0625 34.125 C48.59392578 32.90167969 48.12535156 31.67835938 47.64257812 30.41796875 C47.19462891 29.25136719 46.74667969 28.08476563 46.28515625 26.8828125 C45.87144775 25.80402832 45.45773926 24.72524414 45.03149414 23.61376953 C44.07263528 21.07222133 44.07263528 21.07222133 43 19 C37.555 32.86 37.555 32.86 32 47 C32.66 47.66 33.32 48.32 34 49 C34 49.99 34 50.98 34 52 C28.39 52 22.78 52 17 52 C17 51.01 17 50.02 17 49 C17.66 49 18.32 49 19 49 C15.57405008 38.88116057 11.86567911 28.87473863 7.99478149 18.91833496 C7.49773602 17.63809408 7.0030901 16.35691903 6.51083374 15.0748291 C5.81120073 13.25547191 5.10112021 11.44014283 4.390625 9.625 C3.97844727 8.56539062 3.56626953 7.50578125 3.14160156 6.4140625 C2.23875581 3.86213287 2.23875581 3.86213287 0 3 C0 2.01 0 1.02 0 0 Z " fill="#000000" transform="translate(944,887)"/>
<path d="M0 0 C5.94 0 11.88 0 18 0 C17.67 1.32 17.34 2.64 17 4 C18.51513579 6.0725333 19.96121531 7.75253582 21.75 9.5625 C22.2457251 10.08336182 22.7414502 10.60422363 23.25219727 11.14086914 C27.60863002 15.68960856 32.08369573 20.12737889 36.58984375 24.52734375 C38.91005306 26.90772056 40.94367379 29.39206258 43 32 C43.05815112 27.60422239 43.09364767 23.20854402 43.125 18.8125 C43.14175781 17.56662109 43.15851563 16.32074219 43.17578125 15.03710938 C43.18222656 13.83505859 43.18867187 12.63300781 43.1953125 11.39453125 C43.20578613 10.28956299 43.21625977 9.18459473 43.22705078 8.04614258 C43.12236047 4.57764178 43.12236047 4.57764178 41 0 C46.28 0 51.56 0 57 0 C57 0.99 57 1.98 57 3 C56.34 3 55.68 3 55 3 C55 18.18 55 33.36 55 49 C55.66 49 56.32 49 57 49 C57 49.99 57 50.98 57 52 C51.39 52 45.78 52 40 52 C40.33 50.68 40.66 49.36 41 48 C39.82803827 46.25624216 39.82803827 46.25624216 38 44.75 C35.45917818 42.38853031 33.10567149 40.03162886 30.875 37.375 C25.60881234 31.24927366 19.74690715 25.66912946 14 20 C13.97098599 24.58332006 13.95319652 29.16661651 13.9375 33.75 C13.92912109 35.05195312 13.92074219 36.35390625 13.91210938 37.6953125 C13.90888672 38.94570313 13.90566406 40.19609375 13.90234375 41.484375 C13.89710693 42.63647461 13.89187012 43.78857422 13.88647461 44.97558594 C13.90343543 48.19733751 13.90343543 48.19733751 15 52 C10.05 52 5.1 52 0 52 C0.33 50.68 0.66 49.36 1 48 C1.11026857 46.47412715 1.17524672 44.9445954 1.20532227 43.41503906 C1.22526749 42.51440735 1.24521271 41.61377563 1.26576233 40.68585205 C1.29083107 39.24033966 1.29083107 39.24033966 1.31640625 37.765625 C1.33718735 36.77246277 1.35796844 35.77930054 1.37937927 34.75604248 C1.44469749 31.58743118 1.50367739 28.41873789 1.5625 25.25 C1.60570207 23.10025198 1.64931691 20.95051222 1.69335938 18.80078125 C1.80036071 13.53394051 1.90215991 8.26701845 2 3 C1.34 3 0.68 3 0 3 C0 2.01 0 1.02 0 0 Z " fill="#000000" transform="translate(1323,887)"/>
<path d="M0 0 C5.38937415 -0.07464507 10.77844152 -0.12883434 16.16821289 -0.16479492 C17.99834441 -0.17979997 19.82844046 -0.20021059 21.65844727 -0.22631836 C24.30233558 -0.26306906 26.94574492 -0.27980937 29.58984375 -0.29296875 C30.79978249 -0.31619453 30.79978249 -0.31619453 32.03416443 -0.33988953 C37.67967836 -0.3415293 42.8976763 0.45456747 48 3 C52.29194615 8.15033538 53.44243299 12.36350509 53 19 C51.25572853 24.71733427 49.24654237 27.15812289 44 30 C43.01 30.33 42.02 30.66 41 31 C42.24703105 32.89778755 43.49776058 34.79314511 44.75 36.6875 C45.44609375 37.74324219 46.1421875 38.79898438 46.859375 39.88671875 C50.45958436 45.64419749 50.45958436 45.64419749 56 49 C56 49.99 56 50.98 56 52 C49.4 52 42.8 52 36 52 C36 51.01 36 50.02 36 49 C36.66 49 37.32 49 38 49 C32.6906253 37.80212857 32.6906253 37.80212857 23.375 30.6484375 C19.43295004 30.32267993 19.43295004 30.32267993 14 31 C14.33 36.61 14.66 42.22 15 48 C15.66 48.33 16.32 48.66 17 49 C17 49.99 17 50.98 17 52 C11.39 52 5.78 52 0 52 C0 51.01 0 50.02 0 49 C0.66 49 1.32 49 2 49 C2 33.82 2 18.64 2 3 C1.34 3 0.68 3 0 3 C0 2.01 0 1.02 0 0 Z M14 9 C14 13.29 14 17.58 14 22 C17.39631472 22.08107913 20.79068616 22.14053944 24.1875 22.1875 C25.14720703 22.21263672 26.10691406 22.23777344 27.09570312 22.26367188 C34.03735445 22.35821066 34.03735445 22.35821066 40 19 C41.25676839 17.95296435 41.25676839 17.95296435 41.25 15.625 C41.21335037 13.01276892 41.21335037 13.01276892 39.8125 11.25 C35.0856503 7.99010366 28.68474969 8.88420824 23.1875 8.9375 C21.86202148 8.94426758 21.86202148 8.94426758 20.50976562 8.95117188 C18.33981441 8.96290134 16.16989828 8.98083505 14 9 Z " fill="#000000" transform="translate(1200,887)"/>
<path d="M0 0 C5.38937415 -0.07464507 10.77844152 -0.12883434 16.16821289 -0.16479492 C17.99834441 -0.17979997 19.82844046 -0.20021059 21.65844727 -0.22631836 C24.30233558 -0.26306906 26.94574492 -0.27980937 29.58984375 -0.29296875 C30.79978249 -0.31619453 30.79978249 -0.31619453 32.03416443 -0.33988953 C37.67967836 -0.3415293 42.8976763 0.45456747 48 3 C52.29194615 8.15033538 53.44243299 12.36350509 53 19 C51.66495533 23.37597975 50.59958518 25.50247187 47.0625 28.4375 C44 30 44 30 40 30 C41.92878186 32.79778364 43.86947938 35.58709037 45.8125 38.375 C46.35970703 39.1690625 46.90691406 39.963125 47.47070312 40.78125 C48.00244141 41.54179688 48.53417969 42.30234375 49.08203125 43.0859375 C49.56905518 43.7876709 50.0560791 44.4894043 50.55786133 45.21240234 C52.0588077 47.25536174 52.0588077 47.25536174 55 49 C55 49.99 55 50.98 55 52 C48.73 52 42.46 52 36 52 C36 51.01 36 50.02 36 49 C36.66 49 37.32 49 38 49 C37.28972656 47.95199219 36.57945312 46.90398438 35.84765625 45.82421875 C34.91908801 44.44543561 33.99071262 43.06652257 33.0625 41.6875 C32.59392578 40.99720703 32.12535156 40.30691406 31.64257812 39.59570312 C31.19462891 38.92861328 30.74667969 38.26152344 30.28515625 37.57421875 C29.87144775 36.96151123 29.45773926 36.34880371 29.03149414 35.7175293 C28 34 28 34 27 31 C22.71 31 18.42 31 14 31 C14.14111883 33.75031587 14.28771165 36.50015418 14.4375 39.25 C14.47681641 40.02730469 14.51613281 40.80460938 14.55664062 41.60546875 C14.61948242 42.73662109 14.61948242 42.73662109 14.68359375 43.890625 C14.72025146 44.58188477 14.75690918 45.27314453 14.79467773 45.98535156 C14.9878141 48.35620639 14.9878141 48.35620639 16 52 C10.72 52 5.44 52 0 52 C0 51.01 0 50.02 0 49 C0.66 49 1.32 49 2 49 C2 33.82 2 18.64 2 3 C1.34 3 0.68 3 0 3 C0 2.01 0 1.02 0 0 Z M14 9 C14 13.29 14 17.58 14 22 C17.39631472 22.08107913 20.79068616 22.14053944 24.1875 22.1875 C25.14720703 22.21263672 26.10691406 22.23777344 27.09570312 22.26367188 C34.0687523 22.40140287 34.0687523 22.40140287 40 19 C41.16210219 16.60648505 41.16210219 16.60648505 41 14 C39.99033641 11.65373496 39.99033641 11.65373496 38 10 C33.19090145 8.54695853 28.15971271 8.88929809 23.1875 8.9375 C21.86202148 8.94426758 21.86202148 8.94426758 20.50976562 8.95117188 C18.33981441 8.96290134 16.16989828 8.98083505 14 9 Z " fill="#000000" transform="translate(482,887)"/>
<path d="M0 0 C5.55010083 -0.07453648 11.09990586 -0.12878399 16.65039062 -0.16479492 C18.53585897 -0.17981793 20.42129275 -0.20024231 22.30664062 -0.22631836 C25.0274309 -0.26298863 27.74775641 -0.27979146 30.46875 -0.29296875 C31.30241089 -0.30845261 32.13607178 -0.32393646 32.99499512 -0.33988953 C38.66271464 -0.34149441 42.83531858 0.61583728 48 3 C52.8208678 8.06809179 53.2997249 11.50357286 53.2109375 18.3046875 C52.9448369 21.70486189 52.30190925 23.46789982 50 26 C47.01111063 28.24166702 44.54402516 29.81865828 41 31 C42.92498388 33.82125851 44.86701554 36.63034768 46.8125 39.4375 C47.35970703 40.23994141 47.90691406 41.04238281 48.47070312 41.86914062 C49.00244141 42.63291016 49.53417969 43.39667969 50.08203125 44.18359375 C50.56905518 44.89056396 51.0560791 45.59753418 51.55786133 46.32592773 C52.9946222 48.28285569 52.9946222 48.28285569 56 49 C56 49.99 56 50.98 56 52 C49.73 52 43.46 52 37 52 C37.33 50.68 37.66 49.36 38 48 C35.86870845 42.24160557 31.47085704 36.17306227 27 32 C22.45505073 30.30606822 19.93033441 30.53596853 15 31 C15 36.94 15 42.88 15 49 C15.66 49 16.32 49 17 49 C17 49.99 17 50.98 17 52 C11.39 52 5.78 52 0 52 C0 51.01 0 50.02 0 49 C0.66 49 1.32 49 2 49 C2.05070815 42.66458555 2.08573696 36.32922343 2.10986328 29.99365234 C2.1199211 27.83835901 2.13356899 25.68307932 2.15087891 23.52783203 C2.17513662 20.42997876 2.18648532 17.33230591 2.1953125 14.234375 C2.20563507 13.27070007 2.21595764 12.30702515 2.22659302 11.31414795 C2.22674408 10.41351624 2.22689514 9.51288452 2.22705078 8.58496094 C2.231492 7.79442322 2.23593323 7.0038855 2.24050903 6.18939209 C1.97196847 3.74482453 1.21882157 2.11843965 0 0 Z M15 9 C15 13.29 15 17.58 15 22 C18.22939222 22.05407354 21.45787396 22.09370951 24.6875 22.125 C25.59951172 22.14175781 26.51152344 22.15851562 27.45117188 22.17578125 C33.95459112 22.24262292 33.95459112 22.24262292 40 20 C41.41577477 18.81575674 41.41577477 18.81575674 41.0625 15.4375 C41.0315625 13.7359375 41.0315625 13.7359375 41 12 C35.1779712 8.9902402 30.55546548 8.61993296 24.0625 8.8125 C22.75055664 8.83280273 22.75055664 8.83280273 21.41210938 8.85351562 C19.27446914 8.88855891 17.13715016 8.94235459 15 9 Z " fill="#000000" transform="translate(1649,887)"/>
<path d="M0 0 C5.42601201 -0.04964329 10.85189015 -0.08583447 16.27807617 -0.10986328 C18.12184962 -0.11988642 19.96560731 -0.13350852 21.80932617 -0.15087891 C24.4679759 -0.17528995 27.12641443 -0.18652017 29.78515625 -0.1953125 C30.60210464 -0.20563507 31.41905304 -0.21595764 32.26075745 -0.22659302 C38.56447191 -0.22781341 43.94090541 0.20948296 48.875 4.5 C52.09594003 8.28934121 52.18299982 10.38240327 52.25 15.3125 C52.27578125 16.44300781 52.3015625 17.57351563 52.328125 18.73828125 C51.96591717 22.3387996 51.17766684 24.14054027 49 27 C45.74828878 28.96457553 43.81307353 30 40 30 C46.10472296 40.84472693 46.10472296 40.84472693 55 49 C55 49.99 55 50.98 55 52 C48.73 52 42.46 52 36 52 C36.33 50.68 36.66 49.36 37 48 C36.23571602 46.13130774 36.23571602 46.13130774 34.91015625 44.3984375 C34.45576172 43.74359375 34.00136719 43.08875 33.53320312 42.4140625 C33.04787109 41.74117187 32.56253906 41.06828125 32.0625 40.375 C31.11203053 39.03136445 30.16522337 37.68512834 29.22265625 36.3359375 C28.79734619 35.74345215 28.37203613 35.1509668 27.93383789 34.54052734 C27 33 27 33 27 31 C22.71 31 18.42 31 14 31 C14.14111883 33.75031587 14.28771165 36.50015418 14.4375 39.25 C14.47681641 40.02730469 14.51613281 40.80460938 14.55664062 41.60546875 C14.61948242 42.73662109 14.61948242 42.73662109 14.68359375 43.890625 C14.72025146 44.58188477 14.75690918 45.27314453 14.79467773 45.98535156 C14.9878141 48.35620639 14.9878141 48.35620639 16 52 C10.72 52 5.44 52 0 52 C0.33 50.68 0.66 49.36 1 48 C1.11026857 46.47412715 1.17524672 44.9445954 1.20532227 43.41503906 C1.22526749 42.51440735 1.24521271 41.61377563 1.26576233 40.68585205 C1.29083107 39.24033966 1.29083107 39.24033966 1.31640625 37.765625 C1.33718735 36.77246277 1.35796844 35.77930054 1.37937927 34.75604248 C1.44469749 31.58743118 1.50367739 28.41873789 1.5625 25.25 C1.60570207 23.10025198 1.64931691 20.95051222 1.69335938 18.80078125 C1.80036071 13.53394051 1.90215991 8.26701845 2 3 C1.34 3 0.68 3 0 3 C0 2.01 0 1.02 0 0 Z M14 9 C14 13.29 14 17.58 14 22 C17.39631472 22.08107913 20.79068616 22.14053944 24.1875 22.1875 C25.14720703 22.21263672 26.10691406 22.23777344 27.09570312 22.26367188 C34.05630522 22.3849677 34.05630522 22.3849677 40 19 C41.16666667 17.16666667 41.16666667 17.16666667 41 15 C39.98922073 12.23197129 39.98922073 12.23197129 38 10 C33.24346994 8.4793939 28.1268254 8.88961691 23.1875 8.9375 C21.86202148 8.94426758 21.86202148 8.94426758 20.50976562 8.95117188 C18.33981441 8.96290134 16.16989828 8.98083505 14 9 Z " fill="#000000" transform="translate(794,887)"/>
<path d="M0 0 C3.26408869 0.86065733 6.43589836 1.35377751 9.78515625 1.734375 C8.29345359 6.7067172 6.18058208 11.15283239 3.78515625 15.734375 C2.79515625 15.074375 1.80515625 14.414375 0.78515625 13.734375 C0.78515625 13.074375 0.78515625 12.414375 0.78515625 11.734375 C-7.35476786 8.8247851 -15.35029654 6.71261244 -23.58984375 10.359375 C-28.45679977 13.1615618 -30.6304005 16.6693422 -32.15234375 22.046875 C-32.23284154 26.79624456 -31.52311092 30.55602019 -29.21484375 34.734375 C-24.86530588 39.15727857 -20.23046758 40.86522718 -14.08984375 40.921875 C-8.98587976 40.87941274 -4.16960661 39.89289993 0.78515625 38.734375 C0.78515625 36.424375 0.78515625 34.114375 0.78515625 31.734375 C-1.13216293 31.84893181 -3.04871125 31.97643758 -4.96484375 32.109375 C-6.56585937 32.21378906 -6.56585937 32.21378906 -8.19921875 32.3203125 C-11.49951088 32.60888503 -11.49951088 32.60888503 -15.21484375 34.734375 C-15.21484375 30.444375 -15.21484375 26.154375 -15.21484375 21.734375 C-14.22484375 22.064375 -13.23484375 22.394375 -12.21484375 22.734375 C-10.29718781 22.88377274 -8.37537853 22.98247783 -6.453125 23.05078125 C-4.77573242 23.11362305 -4.77573242 23.11362305 -3.06445312 23.17773438 C-1.89720703 23.21705078 -0.72996094 23.25636719 0.47265625 23.296875 C1.65150391 23.34005859 2.83035156 23.38324219 4.04492188 23.42773438 C6.95821508 23.53388676 9.87159382 23.63593742 12.78515625 23.734375 C12.54176514 24.63542969 12.54176514 24.63542969 12.29345703 25.5546875 C11.64813476 28.32194843 11.65305729 30.8947924 11.66015625 33.734375 C11.65757813 34.765625 11.655 35.796875 11.65234375 36.859375 C11.76651954 39.33094509 12.07164969 41.3786708 12.78515625 43.734375 C11.10067607 44.53244698 9.41239498 45.32249801 7.72265625 46.109375 C6.78292969 46.55023437 5.84320312 46.99109375 4.875 47.4453125 C-1.68422033 50.1817761 -7.49750553 51.12339822 -14.52734375 51.109375 C-15.36604004 51.10776367 -16.20473633 51.10615234 -17.06884766 51.10449219 C-24.87462614 50.95004225 -30.37628369 49.03751104 -37.02734375 45.046875 C-42.96526516 38.7696438 -45.57612971 31.5880165 -45.4296875 22.98046875 C-44.74217415 15.79282916 -42.55341528 9.72477882 -37.21484375 4.734375 C-25.55907813 -3.40651967 -13.34450892 -3.65036889 0 0 Z " fill="#000000" transform="translate(1530.21484375,888.265625)"/>
<path d="M0 0 C0.66 0 1.32 0 2 0 C2 4.62 2 9.24 2 14 C1.34 14 0.68 14 0 14 C0 13.34 0 12.68 0 12 C-10.89 11.67 -21.78 11.34 -33 11 C-33 14.63 -33 18.26 -33 22 C-29.56221369 21.85937689 -26.12486829 21.71273071 -22.6875 21.5625 C-21.71103516 21.52318359 -20.73457031 21.48386719 -19.72851562 21.44335938 C-18.79072266 21.40146484 -17.85292969 21.35957031 -16.88671875 21.31640625 C-15.59060669 21.26141968 -15.59060669 21.26141968 -14.26831055 21.20532227 C-11.8352174 21.07252646 -11.8352174 21.07252646 -9 20 C-9 24.62 -9 29.24 -9 34 C-9.66 34 -10.32 34 -11 34 C-11 33.34 -11 32.68 -11 32 C-18.26 31.67 -25.52 31.34 -33 31 C-33 35.29 -33 39.58 -33 44 C-28.35505142 43.88171792 -23.71031535 43.75746726 -19.06567383 43.62768555 C-17.48563985 43.58437695 -15.90556031 43.54269894 -14.32543945 43.50268555 C-12.05405952 43.44488417 -9.78290811 43.3812184 -7.51171875 43.31640625 C-6.80536789 43.29969376 -6.09901703 43.28298126 -5.3712616 43.26576233 C-2.3335176 43.1740253 0.09623058 42.96792314 3 42 C3 46.62 3 51.24 3 56 C2.01 55.67 1.02 55.34 0 55 C-1.54897725 54.88574862 -3.10211766 54.82382085 -4.6550293 54.79467773 C-5.59577805 54.77473251 -6.53652679 54.75478729 -7.50578308 54.73423767 C-8.51836685 54.71752518 -9.53095062 54.70081268 -10.57421875 54.68359375 C-11.61318802 54.66281265 -12.65215729 54.64203156 -13.72261047 54.62062073 C-17.04417253 54.55519344 -20.36581416 54.49627179 -23.6875 54.4375 C-25.9381593 54.39430831 -28.18881052 54.35069381 -30.43945312 54.30664062 C-35.9595511 54.19951902 -41.47972837 54.09773984 -47 54 C-47 53.01 -47 52.02 -47 51 C-46.34 51 -45.68 51 -45 51 C-45 35.82 -45 20.64 -45 5 C-45.66 5 -46.32 5 -47 5 C-47 4.01 -47 3.02 -47 2 C-46.42592911 1.98969254 -45.85185822 1.97938507 -45.26039124 1.96876526 C-39.30734338 1.86092566 -33.35445385 1.74631023 -27.40161133 1.62768555 C-25.17736104 1.58426412 -22.95307585 1.54259455 -20.72875977 1.50268555 C-17.53911805 1.44515694 -14.3496532 1.38141316 -11.16015625 1.31640625 C-10.15912369 1.29969376 -9.15809113 1.28298126 -8.12672424 1.26576233 C-7.20584518 1.24581711 -6.28496613 1.22587189 -5.33618164 1.20532227 C-4.52121719 1.18977798 -3.70625275 1.1742337 -2.86659241 1.15821838 C-0.98590881 1.20086137 -0.98590881 1.20086137 0 0 Z " fill="#000000" transform="translate(920,885)"/>
<path d="M0 0 C3.36451543 1.08318828 6.46562992 1.63079624 9.97265625 1.95703125 C8.5597353 6.78451115 6.54291471 10.67326715 3.97265625 14.95703125 C3.31265625 14.95703125 2.65265625 14.95703125 1.97265625 14.95703125 C1.41578125 14.35890625 0.85890625 13.76078125 0.28515625 13.14453125 C-5.37139868 7.79373605 -10.78252852 7.63875425 -18.2578125 7.75390625 C-20.65312882 7.9295853 -22.73227648 8.2778228 -25.02734375 8.95703125 C-25.35734375 10.93703125 -25.68734375 12.91703125 -26.02734375 14.95703125 C-25.30667725 15.05725586 -24.58601074 15.15748047 -23.84350586 15.26074219 C-20.54827681 15.727745 -17.25674984 16.21717515 -13.96484375 16.70703125 C-12.83111328 16.86429688 -11.69738281 17.0215625 -10.52929688 17.18359375 C-3.27410523 18.28350619 2.93523862 19.31213009 7.84765625 25.20703125 C9.99314777 30.45156609 10.45763071 34.27388458 8.91015625 39.64453125 C5.50681481 45.46314726 1.40235388 48.26774727 -5.02734375 49.95703125 C-8.09430906 50.2817772 -11.13224744 50.33722956 -14.21484375 50.33203125 C-15.47470093 50.3328772 -15.47470093 50.3328772 -16.76000977 50.33374023 C-23.51243204 50.21463727 -28.88690965 48.76247729 -35.02734375 45.95703125 C-36.35244489 45.59234529 -37.68406774 45.2477174 -39.02734375 44.95703125 C-38.41988978 40.09739946 -36.29975408 36.21647945 -34.02734375 31.95703125 C-33.36734375 31.95703125 -32.70734375 31.95703125 -32.02734375 31.95703125 C-31.53234375 32.72015625 -31.03734375 33.48328125 -30.52734375 34.26953125 C-26.19471613 38.92710594 -20.01200819 40.05626725 -13.77734375 40.33203125 C-9.77588658 39.93188553 -7.34428886 39.22226206 -4.02734375 36.95703125 C-3.06690273 34.88012547 -3.06690273 34.88012547 -3.02734375 32.95703125 C-5.91018955 31.3547664 -8.31585103 30.61405699 -11.58203125 30.2109375 C-12.44441406 30.09556641 -13.30679687 29.98019531 -14.1953125 29.86132812 C-15.99182692 29.6344955 -17.78870329 29.41051032 -19.5859375 29.18945312 C-25.78503685 28.35335999 -30.65673853 27.19949565 -35.33984375 22.76953125 C-37.89734439 18.50703019 -38.5726325 14.61591709 -37.5859375 9.8046875 C-36.08158403 5.18847144 -34.31318101 2.47263138 -30.02734375 -0.04296875 C-19.68876356 -4.85791235 -10.52819866 -3.55122791 0 0 Z " fill="#000000" transform="translate(1165.02734375,889.04296875)"/>
<path d="M0 0 C0.99 0 1.98 0 3 0 C3 4.62 3 9.24 3 14 C2.01 14 1.02 14 0 14 C0 13.34 0 12.68 0 12 C-10.89 11.67 -21.78 11.34 -33 11 C-33 14.63 -33 18.26 -33 22 C-25.74 22 -18.48 22 -11 22 C-11 21.34 -11 20.68 -11 20 C-10.01 20 -9.02 20 -8 20 C-8 24.62 -8 29.24 -8 34 C-8.99 34 -9.98 34 -11 34 C-11 33.34 -11 32.68 -11 32 C-18.26 31.67 -25.52 31.34 -33 31 C-33 35.29 -33 39.58 -33 44 C-28.35505142 43.88171792 -23.71031535 43.75746726 -19.06567383 43.62768555 C-17.48563985 43.58437695 -15.90556031 43.54269894 -14.32543945 43.50268555 C-12.05405952 43.44488417 -9.78290811 43.3812184 -7.51171875 43.31640625 C-6.80536789 43.29969376 -6.09901703 43.28298126 -5.3712616 43.26576233 C-2.3335176 43.1740253 0.09623058 42.96792314 3 42 C3 46.62 3 51.24 3 56 C2.34 56 1.68 56 1 56 C1 55.34 1 54.68 1 54 C-14.84 54 -30.68 54 -47 54 C-47 53.01 -47 52.02 -47 51 C-46.34 51 -45.68 51 -45 51 C-44.95050789 44.82528854 -44.91423657 38.65069295 -44.89013672 32.47583008 C-44.88008831 30.37587472 -44.86644734 28.27593331 -44.84912109 26.17602539 C-44.82482199 23.1550756 -44.81350518 20.13431105 -44.8046875 17.11328125 C-44.79436493 16.17664139 -44.78404236 15.24000153 -44.77340698 14.27497864 C-44.77325592 13.39444321 -44.77310486 12.51390778 -44.77294922 11.60668945 C-44.768508 10.83613724 -44.76406677 10.06558502 -44.75949097 9.27168274 C-44.95309597 6.4609596 -44.95309597 6.4609596 -47 2 C-31.49 2 -15.98 2 0 2 C0 1.34 0 0.68 0 0 Z " fill="#000000" transform="translate(608,885)"/>
<path d="M0 0 C5.61 0 11.22 0 17 0 C16.34 1.32 15.68 2.64 15 4 C14.62323437 8.41770262 14.6707059 12.84009713 14.68432617 17.27172852 C14.68748477 19.42711016 14.66401573 21.58111613 14.63867188 23.73632812 C14.63639844 25.11458161 14.63569559 26.49283877 14.63671875 27.87109375 C14.63373779 29.11818115 14.63075684 30.36526855 14.62768555 31.65014648 C15.02841054 35.25562033 15.83300703 37.12458598 18 40 C22.27833147 42.64249885 27.12667055 42.53315057 32 42 C34.79510528 41.32367963 36.45779868 40.50456813 39 39 C41.13382398 35.03788087 41.25729819 31.53844327 41.265625 27.08984375 C41.26820313 25.77048828 41.27078125 24.45113281 41.2734375 23.09179688 C41.26924805 22.40980225 41.26505859 21.72780762 41.26074219 21.02514648 C41.2500144 18.94029767 41.26066977 16.85630697 41.2734375 14.77148438 C41.27085937 13.45341797 41.26828125 12.13535156 41.265625 10.77734375 C41.26336914 9.57327881 41.26111328 8.36921387 41.25878906 7.12866211 C41.17255038 3.725167 41.17255038 3.725167 39 0 C44.28 0 49.56 0 55 0 C55 0.99 55 1.98 55 3 C54.34 3 53.68 3 53 3 C53.01571045 4.01835938 53.0314209 5.03671875 53.04760742 6.0859375 C53.10226104 9.89526333 53.13647774 13.70455509 53.16479492 17.51416016 C53.17980136 19.15712326 53.20021312 20.80004686 53.22631836 22.44287109 C53.26306359 24.81618042 53.27980772 27.18895625 53.29296875 29.5625 C53.30845261 30.28679199 53.32393646 31.01108398 53.33988953 31.75732422 C53.34191672 38.02089084 52.20110425 43.73940645 47.6875 48.375 C41.31573099 52.22769754 35.37246825 52.33675525 28.125 52.3125 C26.69220703 52.33666992 26.69220703 52.33666992 25.23046875 52.36132812 C17.83396832 52.36640117 12.05435726 51.45676562 6.125 46.6875 C2.00244082 41.47367516 1.71411162 36.20372212 1.8046875 29.7578125 C1.80893234 28.60525467 1.80893234 28.60525467 1.81326294 27.42941284 C1.82438689 24.99444479 1.8494764 22.55985538 1.875 20.125 C1.88503989 18.46615118 1.89416397 16.80729654 1.90234375 15.1484375 C1.92430063 11.09881421 1.95877594 7.04947113 2 3 C1.34 3 0.68 3 0 3 C0 2.01 0 1.02 0 0 Z " fill="#000000" transform="translate(401,887)"/>
<path d="M0 0 C5.40768471 -0.07455448 10.81506548 -0.12879227 16.22314453 -0.16479492 C18.06011166 -0.17981496 19.89704334 -0.20023709 21.73388672 -0.22631836 C24.38518054 -0.26300202 27.03599732 -0.27979438 29.6875 -0.29296875 C30.49928711 -0.30845261 31.31107422 -0.32393646 32.14746094 -0.33988953 C37.75534256 -0.34151821 41.88713523 0.64879544 47 3 C51.82217914 8.06947038 52.29475551 11.50330883 52.21484375 18.3046875 C51.83633203 23.05328902 49.96049442 25.11338976 46.5625 28.25 C42.45706668 31.05371056 39.04971948 31.12270265 34.140625 31.09765625 C33.02558594 31.09443359 31.91054688 31.09121094 30.76171875 31.08789062 C29.60285156 31.07951172 28.44398438 31.07113281 27.25 31.0625 C26.07566406 31.05798828 24.90132813 31.05347656 23.69140625 31.04882812 C20.79424905 31.03705106 17.89711807 31.01911588 15 31 C15 36.94 15 42.88 15 49 C15.66 49 16.32 49 17 49 C17 49.99 17 50.98 17 52 C11.39 52 5.78 52 0 52 C0 51.01 0 50.02 0 49 C0.99 48.505 0.99 48.505 2 48 C2.04944073 41.80697799 2.08573905 35.61407091 2.10986328 29.42089844 C2.11992034 27.31410725 2.13356768 25.20733001 2.15087891 23.10058594 C2.17514 20.07223059 2.18648608 17.04405981 2.1953125 14.015625 C2.20563507 13.07382385 2.21595764 12.13202271 2.22659302 11.16168213 C2.22674408 10.28107117 2.22689514 9.40046021 2.22705078 8.49316406 C2.231492 7.72039124 2.23593323 6.94761841 2.24050903 6.15142822 C1.96961352 3.72818347 1.20548093 2.10226798 0 0 Z M15 9 C15 13.29 15 17.58 15 22 C18.25022232 22.05397048 21.49954753 22.09365955 24.75 22.125 C25.67039062 22.14175781 26.59078125 22.15851562 27.5390625 22.17578125 C28.42851562 22.18222656 29.31796875 22.18867187 30.234375 22.1953125 C31.45979004 22.21102295 31.45979004 22.21102295 32.70996094 22.22705078 C35.29492798 21.97075874 36.85493778 21.46513817 39 20 C40.08333333 16.58333333 40.08333333 16.58333333 40 13 C38.58499574 10.64165957 37.56043152 10.15361544 34.93359375 9.43359375 C31.00177473 8.85245938 27.15529806 8.89426331 23.1875 8.9375 C22.39923828 8.94201172 21.61097656 8.94652344 20.79882812 8.95117188 C18.86585239 8.96288688 16.93291607 8.98082002 15 9 Z " fill="#000000" transform="translate(256,887)"/>
<path d="M0 0 C5.94 0 11.88 0 18 0 C18 0.99 18 1.98 18 3 C17.34 3 16.68 3 16 3 C19.06402784 9.39726884 22.14373901 15.78680469 25.23461914 22.17114258 C26.28482373 24.34516194 27.33138813 26.5209436 28.37426758 28.69848633 C29.87154135 31.82320066 31.38167447 34.94140031 32.89453125 38.05859375 C33.36027054 39.03775253 33.82600983 40.01691132 34.30586243 41.02574158 C34.74609238 41.92659988 35.18632233 42.82745819 35.63989258 43.75561523 C36.21614128 44.95141457 36.21614128 44.95141457 36.80403137 46.17137146 C37.9430022 48.32592601 37.9430022 48.32592601 41 49 C41 49.99 41 50.98 41 52 C34.4 52 27.8 52 21 52 C21 51.01 21 50.02 21 49 C21.66 49 22.32 49 23 49 C22.01 45.7 21.02 42.4 20 39 C12.41 39 4.82 39 -3 39 C-3.99 42.3 -4.98 45.6 -6 49 C-5.34 49 -4.68 49 -4 49 C-4 49.99 -4 50.98 -4 52 C-9.94 52 -15.88 52 -22 52 C-22 51.01 -22 50.02 -22 49 C-21.42330566 48.43974121 -20.84661133 47.87948242 -20.25244141 47.30224609 C-17.28279204 44.26693355 -15.7699374 40.97214698 -13.9609375 37.1640625 C-13.59400787 36.40709076 -13.22707825 35.65011902 -12.84902954 34.87020874 C-12.07705513 33.27344355 -11.30909592 31.67473167 -10.54492188 30.07421875 C-9.38029124 27.63607716 -8.20300216 25.20438353 -7.0234375 22.7734375 C-6.27268368 21.2165091 -5.52265933 19.6592287 -4.7734375 18.1015625 C-4.42445404 17.37949615 -4.07547058 16.65742981 -3.71591187 15.91348267 C0.19870734 8.27859429 0.19870734 8.27859429 0 0 Z M8 15 C5.69 20.28 3.38 25.56 1 31 C5.95 31 10.9 31 16 31 C13.69 25.72 11.38 20.44 9 15 C8.67 15 8.34 15 8 15 Z " fill="#000000" transform="translate(1424,887)"/>
<path d="M0 0 C6.27 0 12.54 0 19 0 C19 0.99 19 1.98 19 3 C18.34 3 17.68 3 17 3 C21.65242133 12.67358432 26.31939283 22.34002351 31 32 C31.46728516 32.96615234 31.93457031 33.93230469 32.41601562 34.92773438 C33.5204463 37.20529237 34.63284281 39.47866482 35.75 41.75 C36.06001953 42.39130859 36.37003906 43.03261719 36.68945312 43.69335938 C38.19064852 46.94870889 38.19064852 46.94870889 41 49 C41 49.99 41 50.98 41 52 C34.73 52 28.46 52 22 52 C22 51.01 22 50.02 22 49 C22.66 49 23.32 49 24 49 C23.01 45.7 22.02 42.4 21 39 C13.41 39 5.82 39 -2 39 C-2.99 42.3 -3.98 45.6 -5 49 C-4.34 49 -3.68 49 -3 49 C-3 49.99 -3 50.98 -3 52 C-8.94 52 -14.88 52 -21 52 C-21 51.01 -21 50.02 -21 49 C-20.11924805 48.12819092 -20.11924805 48.12819092 -19.22070312 47.23876953 C-16.53613589 44.53236215 -15.07167616 41.58253924 -13.46875 38.1796875 C-13.15095581 37.52098663 -12.83316162 36.86228577 -12.5057373 36.18362427 C-11.83630106 34.79195239 -11.17088818 33.39833881 -10.50927734 32.00292969 C-9.51119137 29.89859554 -8.50094809 27.80047493 -7.48828125 25.703125 C-5.62079804 21.81929955 -3.79928484 17.91582053 -2 14 C-1.52820312 12.98325195 -1.05640625 11.96650391 -0.5703125 10.91894531 C0.00589844 9.60168457 0.00589844 9.60168457 0.59375 8.2578125 C0.92052734 7.51934082 1.24730469 6.78086914 1.58398438 6.02001953 C2.30407122 3.57741145 2.30407122 3.57741145 0 0 Z M9 15 C6.69 20.28 4.38 25.56 2 31 C6.62 31 11.24 31 16 31 C15.16583712 26.82918558 14.21232487 23.96469139 12.4375 20.1875 C11.98246094 19.21167969 11.52742188 18.23585938 11.05859375 17.23046875 C10.70925781 16.49441406 10.35992188 15.75835938 10 15 C9.67 15 9.34 15 9 15 Z " fill="#000000" transform="translate(1586,887)"/>
<path d="M0 0 C5.94 0 11.88 0 18 0 C18 0.99 18 1.98 18 3 C17.34 3 16.68 3 16 3 C18.65055728 8.44453226 21.3015299 13.88886201 23.95288086 19.33300781 C24.85403566 21.18353866 25.75507866 23.03412396 26.65600586 24.88476562 C27.95396727 27.55092601 29.25233592 30.21688776 30.55078125 32.8828125 C30.9508992 33.70492218 31.35101715 34.52703186 31.76325989 35.37405396 C32.50744587 36.90161695 33.2535907 38.42822791 34.00210571 39.95367432 C34.90121824 41.79743381 35.7785233 43.65178935 36.65307617 45.50732422 C37.75480237 48.1166907 37.75480237 48.1166907 40 49 C40 49.99 40 50.98 40 52 C33.73 52 27.46 52 21 52 C21 51.01 21 50.02 21 49 C21.66 49 22.32 49 23 49 C22.01 45.7 21.02 42.4 20 39 C12.41 39 4.82 39 -3 39 C-3.99 42.3 -4.98 45.6 -6 49 C-5.34 49 -4.68 49 -4 49 C-4 49.99 -4 50.98 -4 52 C-9.94 52 -15.88 52 -22 52 C-22 51.01 -22 50.02 -22 49 C-21.41806885 48.42926758 -20.8361377 47.85853516 -20.23657227 47.27050781 C-17.42963678 44.42098265 -15.90414876 41.24186957 -14.21484375 37.671875 C-13.87248184 36.9640387 -13.53011993 36.25620239 -13.17738342 35.5269165 C-12.45667848 34.03269815 -11.73999253 32.53653543 -11.02709961 31.03857422 C-9.94575142 28.76733112 -8.85197782 26.50242705 -7.75585938 24.23828125 C-7.05394423 22.77900312 -6.3527491 21.31937839 -5.65234375 19.859375 C-5.33039536 19.19137878 -5.00844696 18.52338257 -4.67674255 17.83514404 C-0.15770139 9.23519804 -0.15770139 9.23519804 0 0 Z M8 15 C5.69 20.28 3.38 25.56 1 31 C5.95 31 10.9 31 16 31 C13.69 25.72 11.38 20.44 9 15 C8.67 15 8.34 15 8 15 Z " fill="#000000" transform="translate(194,887)"/>
<path d="M0 0 C2.07688904 1.03295079 2.07688904 1.03295079 5.7890625 0.76953125 C5.35535405 5.54032415 3.14571859 9.40317384 -0.2109375 12.76953125 C-1.2009375 12.76953125 -2.1909375 12.76953125 -3.2109375 12.76953125 C-3.46101562 12.1559375 -3.71109375 11.54234375 -3.96875 10.91015625 C-6.22561196 7.02097274 -10.02648424 5.94697481 -14.2109375 4.76953125 C-20.87970093 3.99250504 -26.42003189 4.05741227 -32.2109375 7.76953125 C-33.2009375 8.09953125 -34.1909375 8.42953125 -35.2109375 8.76953125 C-36.39484973 11.1457847 -36.39484973 11.1457847 -37.2109375 13.76953125 C-37.5409375 14.75953125 -37.8709375 15.74953125 -38.2109375 16.76953125 C-38.5793806 22.38828849 -38.40283978 25.92664504 -35.2109375 30.76953125 C-30.74417255 35.11557282 -26.55451438 36.57743478 -20.3984375 37.08203125 C-14.49740089 36.93450533 -9.08997091 35.02222019 -4.2109375 31.76953125 C-3.01861137 29.7194917 -3.01861137 29.7194917 -2.2109375 27.76953125 C-1.5509375 27.76953125 -0.8909375 27.76953125 -0.2109375 27.76953125 C1.296875 29.6328125 1.296875 29.6328125 2.9140625 32.08203125 C3.45289063 32.88253906 3.99171875 33.68304687 4.546875 34.5078125 C5.7890625 36.76953125 5.7890625 36.76953125 5.7890625 39.76953125 C4.90605469 40.04539062 4.02304687 40.32125 3.11328125 40.60546875 C-0.13581364 41.66115854 -0.13581364 41.66115854 -2.75390625 43.05859375 C-12.42522098 47.94425053 -23.70664631 48.6017478 -34.21875 46.03515625 C-36.42055881 45.12457769 -38.25371727 44.12041446 -40.2109375 42.76953125 C-41.8196875 41.71765625 -41.8196875 41.71765625 -43.4609375 40.64453125 C-49.15762939 34.68889882 -51.51462942 28.97104107 -51.7734375 20.70703125 C-51.41832009 12.31169153 -49.58714747 6.6746662 -43.3984375 0.89453125 C-30.40645443 -9.53769308 -13.8298888 -7.85655385 0 0 Z " fill="#000000" transform="translate(762.2109375,892.23046875)"/>
<path d="M0 0 C2.4896172 1.6959893 2.4896172 1.6959893 6.3671875 1.36328125 C5.93347905 6.13407415 3.72384359 9.99692384 0.3671875 13.36328125 C-0.6228125 13.36328125 -1.6128125 13.36328125 -2.6328125 13.36328125 C-2.88289063 12.7496875 -3.13296875 12.13609375 -3.390625 11.50390625 C-5.64748696 7.61472274 -9.44835924 6.54072481 -13.6328125 5.36328125 C-20.08348328 4.6116666 -26.20891162 4.39457329 -31.6328125 8.36328125 C-35.59271606 12.32318481 -37.50991456 15.48908768 -37.8828125 21.17578125 C-37.79548987 26.46365189 -36.12727391 29.90921069 -32.3203125 33.61328125 C-27.07625908 37.02801371 -21.84501006 38.22196385 -15.6328125 37.36328125 C-8.21998265 35.67338174 -8.21998265 35.67338174 -2.93359375 30.71875 C-2.50433594 29.94144531 -2.07507813 29.16414062 -1.6328125 28.36328125 C-0.9728125 28.36328125 -0.3128125 28.36328125 0.3671875 28.36328125 C1.875 30.2265625 1.875 30.2265625 3.4921875 32.67578125 C4.03101563 33.47628906 4.56984375 34.27679687 5.125 35.1015625 C6.3671875 37.36328125 6.3671875 37.36328125 6.3671875 40.36328125 C5.48417969 40.63914062 4.60117188 40.915 3.69140625 41.19921875 C0.44231136 42.25490854 0.44231136 42.25490854 -2.17578125 43.65234375 C-11.84709598 48.53800053 -23.12852131 49.1954978 -33.640625 46.62890625 C-35.84514869 45.71720493 -37.67773845 44.72294639 -39.6328125 43.36328125 C-40.2 42.98945312 -40.7671875 42.615625 -41.3515625 42.23046875 C-46.32305081 38.5505926 -49.46371416 33.42729602 -50.6328125 27.36328125 C-51.46413646 18.59875149 -50.86062239 11.63217561 -45.6328125 4.36328125 C-34.20946318 -8.44389423 -14.07410374 -8.74933155 0 0 Z " fill="#000000" transform="translate(144.6328125,891.63671875)"/>
<path d="M0 0 C0.99 0.33 1.98 0.66 3 1 C4.44178289 1.09104132 5.8873776 1.12789396 7.33203125 1.12939453 C8.20303467 1.13254669 9.07403809 1.13569885 9.97143555 1.13894653 C10.90898682 1.1369223 11.84653809 1.13489807 12.8125 1.1328125 C14.26039917 1.13424759 14.26039917 1.13424759 15.73754883 1.13571167 C17.77848374 1.1363922 19.81942081 1.13454675 21.86035156 1.13037109 C24.98767957 1.12502108 28.11486396 1.13032039 31.2421875 1.13671875 C33.22395865 1.13605795 35.20572971 1.13477674 37.1875 1.1328125 C38.5938269 1.13584885 38.5938269 1.13584885 40.02856445 1.13894653 C40.89956787 1.13579437 41.77057129 1.13264221 42.66796875 1.12939453 C43.43391357 1.12859894 44.1998584 1.12780334 44.98901367 1.12698364 C47.20740053 1.07298522 47.20740053 1.07298522 50 0 C50 4.62 50 9.24 50 14 C47.525 13.01 47.525 13.01 45 12 C38.07 11.505 38.07 11.505 31 11 C31 24.2 31 37.4 31 51 C31.66 51 32.32 51 33 51 C33 51.99 33 52.98 33 54 C27.72 54 22.44 54 17 54 C17.33 52.68 17.66 51.36 18 50 C18.10825106 48.65789145 18.17472864 47.31193981 18.20532227 45.96582031 C18.22526749 45.18531311 18.24521271 44.40480591 18.26576233 43.60064697 C18.28247482 42.76821472 18.29918732 41.93578247 18.31640625 41.078125 C18.33718735 40.21813904 18.35796844 39.35815308 18.37937927 38.47210693 C18.44463739 35.73148402 18.50364917 32.99076725 18.5625 30.25 C18.60570781 28.3893133 18.64932282 26.52863602 18.69335938 24.66796875 C18.80105894 20.11207388 18.90030868 15.5561053 19 11 C10.585 11.495 10.585 11.495 2 12 C2 12.66 2 13.32 2 14 C1.34 14 0.68 14 0 14 C0 9.38 0 4.76 0 0 Z " fill="#000000" transform="translate(329,885)"/>
<path d="M0 0 C5.61 0 11.22 0 17 0 C17 0.99 17 1.98 17 3 C16.34 3 15.68 3 15 3 C15 18.18 15 33.36 15 49 C15.66 49 16.32 49 17 49 C17 49.99 17 50.98 17 52 C11.39 52 5.78 52 0 52 C0 51.01 0 50.02 0 49 C0.66 49 1.32 49 2 49 C2.04949211 42.82528854 2.08576343 36.65069295 2.10986328 30.47583008 C2.11991169 28.37587472 2.13355266 26.27593331 2.15087891 24.17602539 C2.17517801 21.1550756 2.18649482 18.13431105 2.1953125 15.11328125 C2.20563507 14.17664139 2.21595764 13.24000153 2.22659302 12.27497864 C2.22674408 11.39444321 2.22689514 10.51390778 2.22705078 9.60668945 C2.231492 8.83613724 2.23593323 8.06558502 2.24050903 7.27168274 C2.04690403 4.4609596 2.04690403 4.4609596 0 0 Z " fill="#000000" transform="translate(1279,887)"/>
</svg>
